<mxfile host="65bd71144e">
    <diagram id="YnsuH4LNzArkPRJicwyz" name="Page-1">
        <mxGraphModel dx="1391" dy="380" grid="0" gridSize="10" guides="1" tooltips="1" connect="1" arrows="1" fold="1" page="1" pageScale="1" pageWidth="850" pageHeight="1100" background="#FFFFFF" math="0" shadow="0">
            <root>
                <mxCell id="0"/>
                <mxCell id="1" parent="0"/>
                <mxCell id="2" value="&lt;font style=&quot;font-size: 12px;&quot;&gt;On-premises (Azure)&lt;br style=&quot;&quot;&gt;10.100.0.0/24&lt;br&gt;&lt;/font&gt;" style="whiteSpace=wrap;html=1;labelBackgroundColor=none;fontFamily=Verdana;fontSize=15;labelPosition=center;verticalLabelPosition=bottom;align=center;verticalAlign=top;" parent="1" vertex="1">
                    <mxGeometry x="313" y="720" width="236" height="153" as="geometry"/>
                </mxCell>
                <mxCell id="3" value="GatewaySubnet&lt;br&gt;10.1000.32/27" style="whiteSpace=wrap;html=1;labelBackgroundColor=none;fontFamily=Verdana;fillColor=#f5f5f5;fontColor=#333333;strokeColor=none;fontSize=10;labelPosition=center;verticalLabelPosition=bottom;align=center;verticalAlign=top;" parent="1" vertex="1">
                    <mxGeometry x="324.4" y="730" width="103.69" height="112.19" as="geometry"/>
                </mxCell>
                <mxCell id="4" value="" style="group;fillColor=default;labelPosition=center;verticalLabelPosition=top;align=center;verticalAlign=bottom;container=0;" parent="1" vertex="1" connectable="0">
                    <mxGeometry x="300.55" y="201" width="155" height="250" as="geometry"/>
                </mxCell>
                <mxCell id="5" value="az-hub-vnet&lt;br&gt;10.0.0.0/24" style="whiteSpace=wrap;html=1;fillColor=none;strokeColor=#6c8ebf;dashed=1;labelPosition=center;verticalLabelPosition=top;align=center;verticalAlign=bottom;" parent="1" vertex="1">
                    <mxGeometry x="306" y="216" width="152.14" height="220" as="geometry"/>
                </mxCell>
                <mxCell id="6" value="" style="aspect=fixed;html=1;points=[];align=center;image;fontSize=12;image=img/lib/azure2/networking/Virtual_Networks.svg;dashed=1;" parent="1" vertex="1">
                    <mxGeometry x="430.99855569155454" y="219" width="21.64138017356475" height="12.920226969292392" as="geometry"/>
                </mxCell>
                <mxCell id="7" value="GatewaySubnet" style="whiteSpace=wrap;html=1;labelBackgroundColor=none;fontFamily=Verdana;fillColor=#f5f5f5;fontColor=#333333;strokeColor=none;fontSize=10;labelPosition=left;verticalLabelPosition=bottom;align=right;verticalAlign=top;spacingLeft=0;spacingBottom=0;spacingRight=-63;spacing=-18;" parent="1" vertex="1">
                    <mxGeometry x="316" y="326" width="129.61" height="106" as="geometry"/>
                </mxCell>
                <mxCell id="9" value="Subnet1" style="whiteSpace=wrap;html=1;labelBackgroundColor=none;fontFamily=Verdana;fillColor=#f5f5f5;fontColor=#333333;strokeColor=none;fontSize=10;labelPosition=center;verticalLabelPosition=top;align=center;verticalAlign=bottom;" parent="1" vertex="1">
                    <mxGeometry x="315.27" y="237" width="125.56" height="84" as="geometry"/>
                </mxCell>
                <mxCell id="10" style="edgeStyle=none;html=1;fontFamily=Verdana;fontSize=10;entryX=0.5;entryY=0.917;entryDx=0;entryDy=0;entryPerimeter=0;endArrow=none;endFill=0;opacity=50;startArrow=none;" parent="1" source="37" target="36" edge="1">
                    <mxGeometry relative="1" as="geometry"/>
                </mxCell>
                <mxCell id="11" value="ER Circuit2: to On-premises" style="aspect=fixed;html=1;points=[];align=left;image;fontSize=12;image=img/lib/azure2/networking/ExpressRoute_Circuits.svg;labelBackgroundColor=none;fontFamily=Verdana;fillColor=default;labelPosition=right;verticalLabelPosition=middle;verticalAlign=middle;" parent="1" vertex="1">
                    <mxGeometry x="353.01" y="631" width="43.75" height="40" as="geometry"/>
                </mxCell>
                <mxCell id="12" style="edgeStyle=none;html=1;entryX=0;entryY=0;entryDx=0;entryDy=0;fontFamily=Verdana;fontSize=10;endArrow=none;endFill=0;opacity=50;exitX=0.582;exitY=1.007;exitDx=0;exitDy=0;exitPerimeter=0;" parent="1" source="13" target="5" edge="1">
                    <mxGeometry relative="1" as="geometry">
                        <mxPoint x="250" y="160" as="sourcePoint"/>
                    </mxGeometry>
                </mxCell>
                <mxCell id="13" value="az-spk1-vnet&lt;br&gt;10.0.1.0/24" style="whiteSpace=wrap;html=1;fillColor=none;strokeColor=#6c8ebf;dashed=1;labelBackgroundColor=none;fontFamily=Verdana;fontSize=10;labelPosition=center;verticalLabelPosition=top;align=center;verticalAlign=bottom;" parent="1" vertex="1">
                    <mxGeometry x="173" y="40" width="140" height="116" as="geometry"/>
                </mxCell>
                <mxCell id="14" value="" style="aspect=fixed;html=1;points=[];align=center;image;fontSize=12;image=img/lib/azure2/networking/Virtual_Networks.svg;dashed=1;labelBackgroundColor=none;fontFamily=Verdana;fillColor=default;" parent="1" vertex="1">
                    <mxGeometry x="285.9" y="42" width="20.1" height="12" as="geometry"/>
                </mxCell>
                <mxCell id="15" value="Subnet" style="whiteSpace=wrap;html=1;labelBackgroundColor=none;fontFamily=Verdana;fillColor=#f5f5f5;fontColor=#333333;strokeColor=none;fontSize=10;labelPosition=center;verticalLabelPosition=top;align=center;verticalAlign=bottom;" parent="1" vertex="1">
                    <mxGeometry x="182" y="57" width="120" height="94.79" as="geometry"/>
                </mxCell>
                <mxCell id="16" value="az-spk1-lxvm&lt;br&gt;10.0.1.4" style="aspect=fixed;html=1;points=[];align=center;image;fontSize=12;image=img/lib/azure2/compute/Virtual_Machine.svg;labelBackgroundColor=none;fontFamily=Verdana;fillColor=default;" parent="1" vertex="1">
                    <mxGeometry x="224.0013" y="67.99988651535381" width="34.086598798397866" height="31.616555407209614" as="geometry"/>
                </mxCell>
                <mxCell id="17" style="edgeStyle=none;html=1;exitX=0.5;exitY=1;exitDx=0;exitDy=0;entryX=1;entryY=0;entryDx=0;entryDy=0;fontFamily=Verdana;fontSize=10;endArrow=none;endFill=0;opacity=50;" parent="1" source="18" target="5" edge="1">
                    <mxGeometry relative="1" as="geometry"/>
                </mxCell>
                <mxCell id="18" value="az-spk2-vnet&lt;br&gt;10.0.2.0/24" style="whiteSpace=wrap;html=1;fillColor=none;strokeColor=#6c8ebf;dashed=1;labelBackgroundColor=none;fontFamily=Verdana;fontSize=10;labelPosition=center;verticalLabelPosition=top;align=center;verticalAlign=bottom;" parent="1" vertex="1">
                    <mxGeometry x="461" y="34.81" width="140" height="116" as="geometry"/>
                </mxCell>
                <mxCell id="19" value="" style="aspect=fixed;html=1;points=[];align=center;image;fontSize=12;image=img/lib/azure2/networking/Virtual_Networks.svg;dashed=1;labelBackgroundColor=none;fontFamily=Verdana;fillColor=default;" parent="1" vertex="1">
                    <mxGeometry x="573" y="38" width="20.1" height="12" as="geometry"/>
                </mxCell>
                <mxCell id="20" value="Subnet" style="whiteSpace=wrap;html=1;labelBackgroundColor=none;fontFamily=Verdana;fillColor=#f5f5f5;fontColor=#333333;strokeColor=none;fontSize=10;labelPosition=center;verticalLabelPosition=top;align=center;verticalAlign=bottom;" parent="1" vertex="1">
                    <mxGeometry x="470" y="51.81" width="120" height="94.79" as="geometry"/>
                </mxCell>
                <mxCell id="21" value="branch-ergw&lt;br&gt;&lt;font color=&quot;#ff8000&quot;&gt;AS 65515&lt;/font&gt;" style="aspect=fixed;html=1;points=[];align=center;image;fontSize=12;image=img/lib/azure2/networking/Virtual_Network_Gateways.svg;glass=0;dashed=1;dashPattern=8 8;strokeColor=#E6E6E6;fontColor=#000000;fillColor=#CCCCCC;rounded=0;sketch=1;hachureGap=4;jiggle=2;curveFitting=1;fontFamily=Verdana;labelBackgroundColor=none;" parent="1" vertex="1">
                    <mxGeometry x="362.26982456140354" y="752.5533884116065" width="27.943925233644855" height="37.081588785046726" as="geometry"/>
                </mxCell>
                <mxCell id="23" value="Subnet1&lt;br&gt;10.100.0.96/27" style="whiteSpace=wrap;html=1;labelBackgroundColor=none;fontFamily=Verdana;fillColor=#f5f5f5;fontColor=#333333;strokeColor=none;fontSize=10;labelPosition=center;verticalLabelPosition=bottom;align=center;verticalAlign=top;" parent="1" vertex="1">
                    <mxGeometry x="434.96" y="730" width="103.69" height="112.19" as="geometry"/>
                </mxCell>
                <mxCell id="26" value="&lt;span style=&quot;font-weight: normal;&quot;&gt;branch-vm1&lt;br&gt;10.100.0.100&lt;/span&gt;" style="aspect=fixed;html=1;points=[];align=center;image;fontSize=12;image=img/lib/azure2/compute/Virtual_Machine.svg;labelBackgroundColor=none;fontFamily=Verdana;fillColor=default;fontStyle=1" parent="1" vertex="1">
                    <mxGeometry x="472.86129999999997" y="755.2898865153538" width="34.086598798397866" height="31.616555407209614" as="geometry"/>
                </mxCell>
                <mxCell id="31" value="" style="edgeStyle=none;html=1;strokeColor=default;fontFamily=Verdana;fontSize=10;fontColor=default;endArrow=none;endFill=0;opacity=50;strokeWidth=1;" parent="1" source="21" target="11" edge="1">
                    <mxGeometry relative="1" as="geometry">
                        <mxPoint x="393.19059872744697" y="728" as="targetPoint"/>
                    </mxGeometry>
                </mxCell>
                <mxCell id="34" value="az-spk2-lxvm&lt;br&gt;10.0.2.4" style="aspect=fixed;html=1;points=[];align=center;image;fontSize=12;image=img/lib/azure2/compute/Virtual_Machine.svg;labelBackgroundColor=none;fontFamily=Verdana;fillColor=default;" parent="1" vertex="1">
                    <mxGeometry x="521.0013" y="64.80988651535381" width="34.086598798397866" height="31.616555407209614" as="geometry"/>
                </mxCell>
                <mxCell id="35" value="az-hub-lxvm&lt;br&gt;10.0.0.4" style="aspect=fixed;html=1;points=[];align=center;image;fontSize=12;image=img/lib/azure2/compute/Virtual_Machine.svg;labelBackgroundColor=none;fontFamily=Verdana;fillColor=default;" parent="1" vertex="1">
                    <mxGeometry x="361.00129999999996" y="251.85988651535382" width="34.086598798397866" height="31.616555407209614" as="geometry"/>
                </mxCell>
                <mxCell id="36" value="az-hub-ergw&lt;br&gt;(AS 65515)" style="aspect=fixed;html=1;points=[];align=center;image;fontSize=12;image=img/lib/azure2/networking/Virtual_Network_Gateways.svg;glass=0;dashed=1;dashPattern=8 8;strokeColor=#E6E6E6;fontColor=#000000;fillColor=#CCCCCC;rounded=0;sketch=1;hachureGap=4;jiggle=2;curveFitting=1;fontFamily=Verdana;labelBackgroundColor=#f5f5f5;fontStyle=0" parent="1" vertex="1">
                    <mxGeometry x="364.07982456140354" y="340.0033884116066" width="27.943925233644855" height="37.081588785046726" as="geometry"/>
                </mxCell>
                <mxCell id="43" style="edgeStyle=none;html=1;endArrow=none;endFill=0;" parent="1" source="37" target="41" edge="1">
                    <mxGeometry relative="1" as="geometry"/>
                </mxCell>
                <mxCell id="37" value="ER Circuit1: to Azure" style="aspect=fixed;html=1;points=[];align=left;image;fontSize=12;image=img/lib/azure2/networking/ExpressRoute_Circuits.svg;labelBackgroundColor=none;fontFamily=Verdana;fillColor=default;labelPosition=right;verticalLabelPosition=middle;verticalAlign=middle;" parent="1" vertex="1">
                    <mxGeometry x="355.27" y="481" width="43.75" height="40" as="geometry"/>
                </mxCell>
                <mxCell id="44" style="edgeStyle=none;html=1;endArrow=none;endFill=0;" parent="1" source="41" target="11" edge="1">
                    <mxGeometry relative="1" as="geometry">
                        <mxPoint x="386" y="611" as="targetPoint"/>
                    </mxGeometry>
                </mxCell>
                <mxCell id="41" value="&lt;span style=&quot;color: rgb(0, 0, 0);&quot;&gt;Megaport Cloud Router (&lt;b&gt;MCR&lt;/b&gt;)&lt;br&gt;&lt;/span&gt;AS 65001&lt;br style=&quot;border-color: var(--border-color); color: rgb(0, 0, 0);&quot;&gt;&lt;div style=&quot;border-color: var(--border-color); color: rgb(0, 0, 0);&quot;&gt;&lt;span style=&quot;border-color: var(--border-color); background-color: initial;&quot;&gt;Connection1:&amp;nbsp;&lt;/span&gt;&lt;span style=&quot;border-color: var(--border-color); background-color: initial;&quot;&gt;ERtoAzure&lt;/span&gt;&lt;/div&gt;&lt;div style=&quot;border-color: var(--border-color); color: rgb(0, 0, 0);&quot;&gt;&lt;span style=&quot;border-color: var(--border-color); background-color: initial;&quot;&gt;Connection2: ERtoOn-premsoes&lt;/span&gt;&lt;/div&gt;" style="sketch=0;outlineConnect=0;fontColor=#232F3E;gradientColor=none;fillColor=#4D27AA;strokeColor=none;dashed=0;verticalLabelPosition=middle;verticalAlign=middle;align=left;html=1;fontSize=12;fontStyle=0;aspect=fixed;pointerEvents=1;shape=mxgraph.aws4.customer_gateway;spacingLeft=1;labelPosition=right;" parent="1" vertex="1">
                    <mxGeometry x="346" y="541" width="60" height="60" as="geometry"/>
                </mxCell>
            </root>
        </mxGraphModel>
    </diagram>
</mxfile>